<?xml version="1.0" encoding="utf-8"?>
<!-- Generated by IcoMoon.io -->
<svg version="1.1" xmlns="http://www.w3.org/2000/svg" xmlns:xlink="http://www.w3.org/1999/xlink" width="752" height="32" viewBox="0 0 752 32">
<defs>
<symbol id="icon-facebook" viewBox="0 0 32 32">
<path d="M21.329 5.313h2.921v-5.088c-0.504-0.069-2.237-0.225-4.256-0.225-4.212 0-7.097 2.649-7.097 7.519v4.481h-4.648v5.688h4.648v14.312h5.699v-14.311h4.46l0.708-5.688h-5.169v-3.919c0.001-1.644 0.444-2.769 2.735-2.769z"></path>
</symbol>
<symbol id="icon-instagram" viewBox="0 0 32 32">
<path d="M31.969 9.408c-0.075-1.7-0.35-2.869-0.744-3.882-0.406-1.075-1.031-2.038-1.85-2.838-0.8-0.813-1.769-1.444-2.832-1.844-1.019-0.394-2.182-0.669-3.882-0.744-1.713-0.081-2.257-0.1-6.601-0.1s-4.888 0.019-6.595 0.094c-1.7 0.075-2.869 0.35-3.882 0.744-1.075 0.406-2.038 1.031-2.838 1.85-0.813 0.8-1.444 1.769-1.844 2.832-0.394 1.019-0.669 2.182-0.744 3.882-0.081 1.713-0.1 2.257-0.1 6.601s0.019 4.888 0.094 6.595c0.075 1.7 0.35 2.869 0.744 3.882 0.406 1.075 1.038 2.038 1.85 2.838 0.8 0.813 1.769 1.444 2.832 1.844 1.019 0.394 2.182 0.669 3.882 0.744 1.706 0.075 2.25 0.094 6.595 0.094s4.888-0.019 6.595-0.094c1.7-0.075 2.869-0.35 3.882-0.744 2.151-0.831 3.851-2.532 4.682-4.682 0.394-1.019 0.669-2.182 0.744-3.882 0.075-1.707 0.094-2.25 0.094-6.595s-0.006-4.888-0.081-6.595zM29.087 22.473c-0.069 1.563-0.331 2.407-0.55 2.969-0.538 1.394-1.644 2.5-3.038 3.038-0.563 0.219-1.413 0.481-2.969 0.55-1.688 0.075-2.194 0.094-6.464 0.094s-4.782-0.019-6.464-0.094c-1.563-0.069-2.407-0.331-2.969-0.55-0.694-0.256-1.325-0.663-1.838-1.194-0.531-0.519-0.938-1.144-1.194-1.838-0.219-0.563-0.481-1.413-0.55-2.969-0.075-1.688-0.094-2.194-0.094-6.464s0.019-4.782 0.094-6.464c0.069-1.563 0.331-2.407 0.55-2.969 0.256-0.694 0.663-1.325 1.2-1.838 0.519-0.531 1.144-0.938 1.838-1.194 0.563-0.219 1.413-0.481 2.969-0.55 1.688-0.075 2.194-0.094 6.464-0.094 4.276 0 4.782 0.019 6.464 0.094 1.563 0.069 2.407 0.331 2.969 0.55 0.694 0.256 1.325 0.662 1.838 1.194 0.531 0.519 0.938 1.144 1.194 1.838 0.219 0.563 0.481 1.413 0.55 2.969 0.075 1.688 0.094 2.194 0.094 6.464s-0.019 4.77-0.094 6.458z M16.059 7.783c-4.538 0-8.22 3.682-8.22 8.22s3.682 8.22 8.22 8.22c4.538 0 8.22-3.682 8.22-8.22s-3.682-8.22-8.22-8.22zM16.059 21.335c-2.944 0-5.332-2.388-5.332-5.332s2.388-5.332 5.332-5.332c2.944 0 5.332 2.388 5.332 5.332s-2.388 5.332-5.332 5.332z M26.524 7.458c0 1.060-0.859 1.919-1.919 1.919s-1.919-0.859-1.919-1.919c0-1.060 0.859-1.919 1.919-1.919s1.919 0.859 1.919 1.919z"></path>
</symbol>
<symbol id="icon-close" viewBox="0 0 32 32">
<path d="M32 3.223l-3.223-3.223-12.777 12.777-12.777-12.777-3.223 3.223 12.777 12.777-12.777 12.777 3.223 3.223 12.777-12.777 12.777 12.777 3.223-3.223-12.777-12.777 12.777-12.777z"></path>
</symbol>
<symbol id="icon-person" viewBox="0 0 32 32">
<path d="M16 16c2.947 0 5.333-2.387 5.333-5.333s-2.387-5.333-5.333-5.333c-2.947 0-5.333 2.387-5.333 5.333s2.387 5.333 5.333 5.333zM16 18.667c-3.56 0-10.667 1.787-10.667 5.333v1.333c0 0.733 0.6 1.333 1.333 1.333h18.667c0.733 0 1.333-0.6 1.333-1.333v-1.333c0-3.547-7.107-5.333-10.667-5.333z"></path>
</symbol>
<symbol id="icon-phone" viewBox="0 0 24 32">
<path d="M19.635 18.487l-2.451-0.28c-0.589-0.067-1.167 0.135-1.582 0.55l-1.775 1.775c-2.731-1.389-4.969-3.618-6.359-6.359l1.785-1.785c0.415-0.415 0.618-0.994 0.55-1.582l-0.28-2.432c-0.116-0.975-0.936-1.708-1.92-1.708h-1.669c-1.090 0-1.997 0.907-1.93 1.997 0.511 8.24 7.102 14.821 15.332 15.332 1.090 0.068 1.997-0.839 1.997-1.93v-1.669c0.010-0.975-0.724-1.795-1.698-1.911z"></path>
</symbol>
<symbol id="icon-email" viewBox="0 0 24 32">
<path d="M20 8h-16c-1.1 0-1.99 0.9-1.99 2l-0.010 12c0 1.1 0.9 2 2 2h16c1.1 0 2-0.9 2-2v-12c0-1.1-0.9-2-2-2zM19.6 12.25l-7.070 4.42c-0.32 0.2-0.74 0.2-1.060 0l-7.070-4.42c-0.25-0.16-0.4-0.43-0.4-0.72 0-0.67 0.73-1.070 1.3-0.72l6.7 4.19 6.7-4.19c0.57-0.35 1.3 0.050 1.3 0.72 0 0.29-0.15 0.56-0.4 0.72z"></path>
</symbol>
<symbol id="icon-menu" viewBox="0 0 32 32">
<path d="M4.799 8.001c0-0.424 0.169-0.831 0.469-1.131s0.707-0.469 1.131-0.469h19.2c0.424 0 0.831 0.169 1.131 0.469s0.469 0.707 0.469 1.131-0.169 0.831-0.469 1.131c-0.3 0.3-0.707 0.469-1.131 0.469h-19.2c-0.424 0-0.831-0.169-1.131-0.469s-0.469-0.707-0.469-1.131z"></path>
<path d="M4.799 16.001c0-0.424 0.169-0.831 0.469-1.131s0.707-0.469 1.131-0.469h19.2c0.424 0 0.831 0.169 1.131 0.469s0.469 0.707 0.469 1.131c0 0.424-0.169 0.831-0.469 1.131s-0.707 0.469-1.131 0.469h-19.2c-0.424 0-0.831-0.169-1.131-0.469s-0.469-0.707-0.469-1.131z"></path>
<path d="M4.799 24.001c0-0.424 0.169-0.831 0.469-1.131s0.707-0.469 1.131-0.469h19.2c0.424 0 0.831 0.169 1.131 0.469s0.469 0.707 0.469 1.131c0 0.424-0.169 0.831-0.469 1.131s-0.707 0.469-1.131 0.469h-19.2c-0.424 0-0.831-0.169-1.131-0.469s-0.469-0.707-0.469-1.131z"></path>
</symbol>
<!-- <symbol id="icon-close" viewBox="0 0 32 32">
<path d="M32 3.223l-3.223-3.223-12.777 12.777-12.777-12.777-3.223 3.223 12.777 12.777-12.777 12.777 3.223 3.223 12.777-12.777 12.777 12.777 3.223-3.223-12.777-12.777 12.777-12.777z"></path>
</symbol> -->
<symbol id="icon-location" viewBox="0 0 32 32">
<path d="M16.002 17.746c3.309 0 6-2.692 6-6s-2.691-6-6-6c-3.309 0-6 2.691-6 6s2.691 6 6 6zM16.002 6.746c2.758 0 5 2.242 5 5s-2.242 5-5 5c-2.758 0-5-2.242-5-5s2.242-5 5-5zM16 0c-6.618 0-12 5.316-12 12.001 0 7 6.001 14.161 10.376 19.194 0.016 0.020 0.718 0.805 1.586 0.805 0.002 0 0.073 0 0.077 0 0.867 0 1.57-0.785 1.586-0.805 4.377-5.033 10.377-12.193 10.377-19.194 0-6.685-5.383-12.001-12.002-12.001zM16.117 29.883c-0.021 0.020-0.082 0.064-0.135 0.098-0.010-0.027-0.084-0.086-0.129-0.133-3.665-4.217-9.853-11.334-9.853-17.847 0-5.514 4.487-10.001 10-10.001 5.516 0 10.002 4.487 10.002 10.002 0 6.512-6.188 13.629-9.885 17.881z"></path>
</symbol>
<symbol id="icon-general-inq" viewBox="0 0 32 32">
<path d="M3.8 4.2l-1 0.96v10.96c0 14-1 12.68 9.72 12.68 10.12 0 9.48 0.48 9.48-7.28v-5.68l3.8-3.88c2.080-2.12 3.8-4.12 3.8-4.48 0-0.56-2.16-2.68-2.76-2.68-0.16 0-1.16 0.88-2.24 2-1.080 1.080-2.12 2-2.28 2s-0.32-0.92-0.32-2c0-1.48-0.2-2.2-0.8-2.8-0.76-0.76-1.32-0.8-8.6-0.8-7.8 0-7.84 0-8.8 1zM21.12 4.72c0.24 0.36 0.48 1.64 0.48 2.88v2.2l-4.2 4.2c-3.28 3.28-4.32 4.6-4.84 6.080l-0.6 1.88-2.88 0.16c-2.8 0.12-2.76 0.12 0.76 0.2 4.64 0.12 6-0.44 9.28-3.64l2.48-2.44v5.28c0 7.28 0.52 6.88-9.12 6.88-5.88 0-7.68-0.12-8.32-0.56-0.72-0.56-0.76-1.2-0.88-11.24-0.12-9.12-0.040-10.84 0.52-11.64 0.6-0.92 0.72-0.96 8.12-1.040 8.16-0.12 8.44-0.12 9.2 0.8zM28.4 6.6l0.96 1.040-1 0.96-1 1-1.16-1.2c-1.12-1.16-1.12-1.2-0.4-2 0.96-1.040 1.48-1 2.6 0.2zM21.8 15.2c-2.84 2.88-5.4 5.2-5.64 5.2s-0.84-0.44-1.36-1l-0.96-1.040 10.76-10.76 2.4 2.4-5.2 5.2zM14.72 19.96c1.12 0.96 1.12 1.080-0.080 1.4-0.52 0.12-1.24 0.36-1.56 0.48-0.52 0.2-0.56 0.040-0.2-1.2 0.52-1.64 0.6-1.68 1.84-0.68z"></path>
<path d="M9.32 7.080c1.68 0.080 4.48 0.080 6.2 0 1.68-0.040 0.28-0.12-3.12-0.12s-4.8 0.080-3.080 0.12z"></path>
<path d="M6.6 10c-0.16 0.24 0.88 0.4 2.76 0.4 1.76 0 3.040-0.16 3.040-0.4s-1.2-0.4-2.76-0.4c-1.56 0-2.92 0.16-3.040 0.4z"></path>
<path d="M6.6 13.2c0.16 0.24 2.2 0.4 4.8 0.4s4.64-0.16 4.8-0.4c0.16-0.24-1.52-0.4-4.8-0.4s-4.96 0.16-4.8 0.4z"></path>
<path d="M8.32 16.28c1.16 0.080 2.96 0.080 4 0s0.080-0.12-2.12-0.12c-2.2 0-3.040 0.040-1.88 0.12z"></path>
<path d="M6.4 19.2c0 0.24 1.080 0.4 2.44 0.4 1.48 0 2.32-0.16 2.16-0.4-0.12-0.24-1.24-0.4-2.44-0.4s-2.16 0.16-2.16 0.4z"></path>
<path d="M9.32 25.48c1.68 0.080 4.48 0.080 6.2 0 1.68-0.040 0.28-0.12-3.12-0.12s-4.8 0.080-3.080 0.12z"></path>
</symbol>
<symbol id="icon-arrow-down" viewBox="0 0 53 32">
<path d="M50.515 2.819c1.389 1.389 1.389 3.64 0 5.028l-21.333 21.333c-1.389 1.389-3.64 1.389-5.028 0l-21.333-21.333c-1.389-1.389-1.389-3.64 0-5.028s3.64-1.389 5.028 0l18.819 18.819 18.819-18.819c1.389-1.389 3.64-1.389 5.028 0z"></path>
</symbol>
<symbol id="icon-arrow-up" viewBox="0 0 53 32">
<path d="M2.82 29.181c-1.389-1.389-1.389-3.64 0-5.028l21.333-21.333c1.389-1.389 3.64-1.389 5.028 0l21.333 21.333c1.389 1.389 1.389 3.64 0 5.028s-3.64 1.388-5.028-0l-18.819-18.819-18.819 18.819c-1.389 1.389-3.64 1.389-5.028 0z"></path>
</symbol>
</defs>
</svg>
